<svg xmlns="http://www.w3.org/2000/svg" width="1600" height="900" viewBox="0 0 1600 900" preserveAspectRatio="xMidYMid slice">
  <defs>
    <linearGradient id="bg" x1="0" y1="0" x2="1" y2="1">
      <stop offset="0%" stop-color="#fff1f1"/>
      <stop offset="50%" stop-color="#ffe4e6"/>
      <stop offset="100%" stop-color="#fef3c7"/>
    </linearGradient>
    <radialGradient id="heartGrad" cx="50%" cy="40%" r="60%">
      <stop offset="0%" stop-color="#ff6b6b"/>
      <stop offset="70%" stop-color="#ef4444"/>
      <stop offset="100%" stop-color="#b91c1c"/>
    </radialGradient>
    <filter id="softShadow" x="-20%" y="-20%" width="140%" height="140%">
      <feGaussianBlur stdDeviation="10"/>
    </filter>
  </defs>

  <!-- warm backdrop -->
  <rect width="1600" height="900" fill="url(#bg)"/>

  <!-- BIG HEART -->
  <!-- This path draws a large heart centered-left so it shows prominently in the hero panel -->
  <path d="M500,300 A200,200 0,0,1 800,300 A200,200 0,0,1 1100,300 Q1100,620 800,830 Q500,620 500,300 Z"
        fill="url(#heartGrad)" stroke="#7c3aed" stroke-width="12" filter="url(#softShadow)" opacity="0.95"/>

  <!-- light highlight stroke -->
  <path d="M520,310 A180,180 0,0,1 800,310 A180,180 0,0,1 1080,310 Q1080,600 800,810 Q520,600 520,310 Z"
        fill="none" stroke="#ffffff" stroke-opacity="0.35" stroke-width="6"/>

  <!-- subtle decorative lines -->
  <g opacity="0.15" stroke="#7c3aed" stroke-width="2" fill="none">
    <path d="M300 160 C420 160 460 220 520 220 L580 220 L600 160 L660 340 L700 220 L780 220 C840 220 860 180 920 180 L1000 180 L1020 120 L1080 300 L1120 180 L1200 180 C1260 180 1280 140 1340 140 L1600 140"/>
  </g>
</svg>